<svg width="40" height="40" viewBox="0 0 40 40" fill="none" xmlns="http://www.w3.org/2000/svg">
<g clip-path="url(#clip0_18_9)">
<mask id="mask0_18_9" style="mask-type:luminance" maskUnits="userSpaceOnUse" x="0" y="0" width="40" height="40">
<path d="M40 0H0V40H40V0Z" fill="white"/>
</mask>
<g mask="url(#mask0_18_9)">
<path d="M36 0H4C1.79086 0 0 1.79086 0 4V36C0 38.2091 1.79086 40 4 40H36C38.2091 40 40 38.2091 40 36V4C40 1.79086 38.2091 0 36 0Z" fill="#444444"/>
<path fill-rule="evenodd" clip-rule="evenodd" d="M20.01 8.19995C13.37 8.19995 8 13.61 8 20.3C8 25.65 11.44 30.18 16.21 31.78C16.81 31.9 17.03 31.52 17.03 31.2C17.03 30.92 17.01 29.9599 17.01 28.9599C13.67 29.6799 12.97 27.52 12.97 27.52C12.43 26.12 11.64 25.76 11.64 25.76C10.55 25.02 11.72 25.02 11.72 25.02C12.93 25.1 13.57 26.26 13.57 26.26C14.64 28.1 16.37 27.58 17.07 27.26C17.17 26.48 17.49 25.9399 17.83 25.6399C15.17 25.3599 12.36 24.32 12.36 19.67C12.36 18.35 12.84 17.27 13.59 16.43C13.47 16.13 13.05 14.89 13.71 13.22C13.71 13.22 14.72 12.9 17.01 14.46C17.99 14.2 19 14.06 20.01 14.06C21.02 14.06 22.06 14.2 23.01 14.46C25.3 12.9 26.31 13.22 26.31 13.22C26.97 14.88 26.55 16.12 26.43 16.43C27.21 17.27 27.66 18.35 27.66 19.67C27.66 24.32 24.86 25.3399 22.17 25.6399C22.61 26.0199 22.99 26.74 22.99 27.88C22.99 29.5 22.97 30.7999 22.97 31.2099C22.97 31.5299 23.19 31.91 23.79 31.79C28.56 30.19 32 25.66 32 20.31C32.02 13.62 26.63 8.20995 20.01 8.20995V8.19995Z" fill="white"/>
</g>
</g>
<defs>
<clipPath id="clip0_18_9">
<rect width="40" height="40" fill="white"/>
</clipPath>
</defs>
</svg>
