<svg width="40" height="40" viewBox="0 0 40 40" fill="none" xmlns="http://www.w3.org/2000/svg">
<g clip-path="url(#clip0_18_16)">
<mask id="mask0_18_16" style="mask-type:luminance" maskUnits="userSpaceOnUse" x="0" y="0" width="40" height="40">
<path d="M40 0H0V40H40V0Z" fill="white"/>
</mask>
<g mask="url(#mask0_18_16)">
<path d="M36 0H4C1.79086 0 0 1.79086 0 4V36C0 38.2091 1.79086 40 4 40H36C38.2091 40 40 38.2091 40 36V4C40 1.79086 38.2091 0 36 0Z" fill="#444444"/>
<path d="M29.82 8H10.18C8.98 8 8 8.97 8 10.18V29.82C8 31.02 8.97 32 10.18 32H29.82C31.02 32 32 31.03 32 29.82V10.18C32 8.98 31.03 8 29.82 8ZM15.59 27.63H12.38V17.27H15.59V27.63ZM13.95 15.79C12.91 15.79 12.08 14.95 12.08 13.92C12.08 12.89 12.92 12.05 13.95 12.05C14.98 12.05 15.82 12.89 15.82 13.92C15.82 14.95 14.98 15.79 13.95 15.79ZM27.64 27.63H24.43V22.6C24.43 21.4 24.41 19.85 22.76 19.85C21.11 19.85 20.83 21.16 20.83 22.51V27.63H17.62V17.27H20.7V18.69H20.74C21.17 17.88 22.22 17.02 23.78 17.02C27.04 17.02 27.64 19.16 27.64 21.95V27.63Z" fill="white"/>
</g>
</g>
<defs>
<clipPath id="clip0_18_16">
<rect width="40" height="40" fill="white"/>
</clipPath>
</defs>
</svg>
